<svg xmlns="http://www.w3.org/2000/svg" viewBox="0 0 224.95 173.78"><defs><style>.cls-1{font-size:53px;font-family:OpenSans-CondensedLight, Open Sans;font-weight:300;}</style></defs><title>logo</title><g id="Layer_2" data-name="Layer 2"><path d="M257.69,347.11H47A7.14,7.14,0,0,1,39.87,340V180.46A7.14,7.14,0,0,1,47,173.33H257.69a7.14,7.14,0,0,1,7.13,7.13V340A7.14,7.14,0,0,1,257.69,347.11ZM47,175.33a5.13,5.13,0,0,0-5.13,5.13V340A5.14,5.14,0,0,0,47,345.11H257.69a5.14,5.14,0,0,0,5.13-5.14V180.46a5.13,5.13,0,0,0-5.13-5.13Z" transform="translate(-39.87 -173.33)"/><text class="cls-1" transform="translate(11.13 153.55)">VINTANNIN</text><path d="M50.7,226.92a5,5,0,0,1,1.41-1,4,4,0,0,0,1.46-1.07c.42-.49,1-.59,4.29-.59,3.41,0,3.83.06,4.36.7s.69.69,12.18.53c11.79-.17,14.09-.37,22.7-1.9,8.42-1.49,11.79-2.49,26.61-7.81,16.2-5.83,23.24-7.52,35.23-8.45,2.71-.24,19.29-.37,43.26-.37,37.06,0,38.94,0,40.43.63a7.06,7.06,0,0,1,2.49,1.73l.92,1.13v23.19c0,23,0,23.18-.81,24.11a11,11,0,0,1-2.07,1.7l-1.26.73H201.47c-43.88,0-45.41-.07-54.75-1.86-6.66-1.3-11.56-2.77-23.89-7.15-12.64-4.53-14.71-5.19-21.14-6.59-10.26-2.23-18.19-3-30.4-3-8.23,0-8.69,0-9.15.67s-.88.66-4.29.66-3.87-.06-4.29-.66a1.6,1.6,0,0,0-1-.67,3.08,3.08,0,0,1-1.41-.83c-1-.8-1-.87-1-7C50.24,229.32,50.35,227.29,50.7,226.92ZM188,254.9h21.45V212.32H166.59V254.9Z" transform="translate(-39.87 -173.33)"/><rect x="123.09" y="36.8" width="50.48" height="46.57"/></g></svg>